<svg xmlns="http://www.w3.org/2000/svg" width="1600" height="900" viewBox="0 0 1600 900" role="img" aria-label="インプラント3層構造"><rect width="1600" height="900" fill="#FAFAF7"/><rect x="70" y="58" width="1460" height="784" rx="18" fill="#FFFFFF" stroke="#D9D6CE"/><text x="120" y="126" font-family="Noto Serif JP, Hiragino Mincho ProN, Yu Mincho, serif" font-size="45" font-weight="600" fill="#2C2C2A">インプラント3層構造</text><text x="122" y="168" font-family="Noto Sans JP, Hiragino Sans, Yu Gothic, sans-serif" font-size="22" font-weight="500" fill="#6B6B68">人工歯・連結部・人工歯根で支える</text><line x1="120" y1="205" x2="1480" y2="205" stroke="#D9D6CE"/><path d="M401.5 302.5 C 374.9 323.4, 384.4 374.7, 411 412.7 C 422.4 429.8, 426.2 384.2, 430 378.5 C 433.8 384.2, 437.6 429.8, 449 412.7 C 475.6 374.7, 485.1 323.4, 458.5 302.5 C 443.3 291.1, 431.9 308.2, 430 310.1 C 428.1 308.2, 416.7 291.1, 401.5 302.5 Z" fill="#F8FBFA" stroke="#0A8A85" stroke-width="4"/><rect x="390" y="500" width="80" height="80" rx="12" fill="#F5F2EE" stroke="#E5A84C" stroke-width="4"/><path d="M430 580 L430 710" stroke="#0A8A85" stroke-width="28" stroke-linecap="round"/><path d="M405 610 L455 610 M405 650 L455 650 M405 690 L455 690" stroke="#FFFFFF" stroke-width="5"/><rect x="760" y="280" width="420" height="90" rx="10" fill="#FFFFFF" stroke="#D9D6CE"/><rect x="760" y="280" width="420" height="8" rx="4" fill="#0A8A85"/><text x="784" y="328" font-family="Noto Sans JP, Hiragino Sans, Yu Gothic, sans-serif" font-size="25" font-weight="700" fill="#2C2C2A">人工歯</text><text x="784" y="368" font-family="Noto Sans JP, Hiragino Sans, Yu Gothic, sans-serif" font-size="19" font-weight="500" fill="#6B6B68">見える部分</text><rect x="760" y="410" width="420" height="90" rx="10" fill="#FFFFFF" stroke="#D9D6CE"/><rect x="760" y="410" width="420" height="8" rx="4" fill="#E5A84C"/><text x="784" y="458" font-family="Noto Sans JP, Hiragino Sans, Yu Gothic, sans-serif" font-size="25" font-weight="700" fill="#2C2C2A">アバットメント</text><text x="784" y="498" font-family="Noto Sans JP, Hiragino Sans, Yu Gothic, sans-serif" font-size="19" font-weight="500" fill="#6B6B68">連結する部分</text><rect x="760" y="540" width="420" height="90" rx="10" fill="#FFFFFF" stroke="#D9D6CE"/><rect x="760" y="540" width="420" height="8" rx="4" fill="#6AA7B8"/><text x="784" y="588" font-family="Noto Sans JP, Hiragino Sans, Yu Gothic, sans-serif" font-size="25" font-weight="700" fill="#2C2C2A">インプラント体</text><text x="784" y="628" font-family="Noto Sans JP, Hiragino Sans, Yu Gothic, sans-serif" font-size="19" font-weight="500" fill="#6B6B68">骨に埋入する部分</text><path d="M700 325 C 620 325, 620 355, 540 355" fill="none" stroke="#0A8A85" stroke-width="4" stroke-linecap="round"/><path d="M528 347 L540 355 L528 363" fill="none" stroke="#0A8A85" stroke-width="4" stroke-linecap="round" stroke-linejoin="round"/><path d="M700 455 C 590 455, 590 540, 480 540" fill="none" stroke="#E5A84C" stroke-width="4" stroke-linecap="round"/><path d="M468 532 L480 540 L468 548" fill="none" stroke="#E5A84C" stroke-width="4" stroke-linecap="round" stroke-linejoin="round"/><path d="M700 585 C 585 585, 585 655, 470 655" fill="none" stroke="#6AA7B8" stroke-width="4" stroke-linecap="round"/><path d="M458 647 L470 655 L458 663" fill="none" stroke="#6AA7B8" stroke-width="4" stroke-linecap="round" stroke-linejoin="round"/></svg>