<svg xmlns="http://www.w3.org/2000/svg" width="1600" height="900" viewBox="0 0 1600 900" role="img" aria-label="マウスピース矯正の流れ"><rect width="1600" height="900" fill="#FAFAF7"/><rect x="70" y="58" width="1460" height="784" rx="18" fill="#FFFFFF" stroke="#D9D6CE"/><text x="120" y="126" font-family="Noto Serif JP, Hiragino Mincho ProN, Yu Mincho, serif" font-size="45" font-weight="600" fill="#2C2C2A">マウスピース矯正の流れ</text><text x="122" y="168" font-family="Noto Sans JP, Hiragino Sans, Yu Gothic, sans-serif" font-size="22" font-weight="500" fill="#6B6B68">スキャンから交換サイクルまで見える化する</text><line x1="120" y1="205" x2="1480" y2="205" stroke="#D9D6CE"/><rect x="145" y="300" width="270" height="270" rx="10" fill="#FFFFFF" stroke="#D9D6CE"/><rect x="145" y="300" width="270" height="8" rx="4" fill="#6AA7B8"/><text x="169" y="348" font-family="Noto Sans JP, Hiragino Sans, Yu Gothic, sans-serif" font-size="25" font-weight="700" fill="#2C2C2A">3Dスキャン</text><text x="169" y="388" font-family="Noto Sans JP, Hiragino Sans, Yu Gothic, sans-serif" font-size="19" font-weight="500" fill="#6B6B68">口腔内を記録</text><path d="M420 435 C 460 435, 460 435, 500 435" fill="none" stroke="#0A8A85" stroke-width="4" stroke-linecap="round"/><path d="M488 427 L500 435 L488 443" fill="none" stroke="#0A8A85" stroke-width="4" stroke-linecap="round" stroke-linejoin="round"/><rect x="505" y="300" width="270" height="270" rx="10" fill="#FFFFFF" stroke="#D9D6CE"/><rect x="505" y="300" width="270" height="8" rx="4" fill="#0A8A85"/><text x="529" y="348" font-family="Noto Sans JP, Hiragino Sans, Yu Gothic, sans-serif" font-size="25" font-weight="700" fill="#2C2C2A">治療計画</text><text x="529" y="388" font-family="Noto Sans JP, Hiragino Sans, Yu Gothic, sans-serif" font-size="19" font-weight="500" fill="#6B6B68">動きを確認</text><path d="M780 435 C 820 435, 820 435, 860 435" fill="none" stroke="#0A8A85" stroke-width="4" stroke-linecap="round"/><path d="M848 427 L860 435 L848 443" fill="none" stroke="#0A8A85" stroke-width="4" stroke-linecap="round" stroke-linejoin="round"/><rect x="865" y="300" width="270" height="270" rx="10" fill="#FFFFFF" stroke="#D9D6CE"/><rect x="865" y="300" width="270" height="8" rx="4" fill="#0ABAB5"/><text x="889" y="348" font-family="Noto Sans JP, Hiragino Sans, Yu Gothic, sans-serif" font-size="25" font-weight="700" fill="#2C2C2A">装置作製</text><text x="889" y="388" font-family="Noto Sans JP, Hiragino Sans, Yu Gothic, sans-serif" font-size="19" font-weight="500" fill="#6B6B68">透明な装置</text><path d="M1140 435 C 1180 435, 1180 435, 1220 435" fill="none" stroke="#0A8A85" stroke-width="4" stroke-linecap="round"/><path d="M1208 427 L1220 435 L1208 443" fill="none" stroke="#0A8A85" stroke-width="4" stroke-linecap="round" stroke-linejoin="round"/><rect x="1225" y="300" width="270" height="270" rx="10" fill="#FFFFFF" stroke="#D9D6CE"/><rect x="1225" y="300" width="270" height="8" rx="4" fill="#E5A84C"/><text x="1249" y="348" font-family="Noto Sans JP, Hiragino Sans, Yu Gothic, sans-serif" font-size="25" font-weight="700" fill="#2C2C2A">交換・通院</text><text x="1249" y="388" font-family="Noto Sans JP, Hiragino Sans, Yu Gothic, sans-serif" font-size="19" font-weight="500" fill="#6B6B68">定期チェック</text></svg>