<svg xmlns="http://www.w3.org/2000/svg" width="1600" height="900" viewBox="0 0 1600 900" role="img" aria-label="口呼吸・舌の位置・顎の成長"><rect width="1600" height="900" fill="#FAFAF7"/><rect x="70" y="58" width="1460" height="784" rx="18" fill="#FFFFFF" stroke="#D9D6CE"/><text x="120" y="126" font-family="Noto Serif JP, Hiragino Mincho ProN, Yu Mincho, serif" font-size="45" font-weight="600" fill="#2C2C2A">口呼吸・舌の位置・顎の成長</text><text x="122" y="168" font-family="Noto Sans JP, Hiragino Sans, Yu Gothic, sans-serif" font-size="22" font-weight="500" fill="#6B6B68">呼吸と舌の位置を、歯並びの土台として見る</text><line x1="120" y1="205" x2="1480" y2="205" stroke="#D9D6CE"/><rect x="130" y="250" width="360" height="350" rx="10" fill="#FFFFFF" stroke="#D9D6CE"/><rect x="130" y="250" width="360" height="8" rx="4" fill="#0A8A85"/><text x="154" y="298" font-family="Noto Sans JP, Hiragino Sans, Yu Gothic, sans-serif" font-size="25" font-weight="700" fill="#2C2C2A">鼻呼吸</text><text x="154" y="338" font-family="Noto Sans JP, Hiragino Sans, Yu Gothic, sans-serif" font-size="19" font-weight="500" fill="#6B6B68">舌が上あごに接する</text><path d="M267 433 C 229 483, 243 563, 317 581 C 365 593, 419 561, 427 513 C 437 451, 321 389, 267 433 Z" fill="#F5F2EE" stroke="#D9D6CE" stroke-width="3"/><path d="M281 503 C 325 507, 365 507, 403 507" fill="none" stroke="#2C2C2A" stroke-width="4" stroke-linecap="round"/><path d="M289 493 C 329 473, 367 477, 399 493" fill="none" stroke="#0A8A85" stroke-width="8" stroke-linecap="round"/><circle cx="307" cy="461" r="7" fill="#2C2C2A"/><path d="M510 425 C 600 425, 600 425, 690 425" fill="none" stroke="#0A8A85" stroke-width="4" stroke-linecap="round"/><path d="M678 417 L690 425 L678 433" fill="none" stroke="#0A8A85" stroke-width="4" stroke-linecap="round" stroke-linejoin="round"/><rect x="620" y="250" width="360" height="350" rx="10" fill="#FFFFFF" stroke="#D9D6CE"/><rect x="620" y="250" width="360" height="8" rx="4" fill="#D97972"/><text x="644" y="298" font-family="Noto Sans JP, Hiragino Sans, Yu Gothic, sans-serif" font-size="25" font-weight="700" fill="#2C2C2A">口呼吸</text><text x="644" y="338" font-family="Noto Sans JP, Hiragino Sans, Yu Gothic, sans-serif" font-size="19" font-weight="500" fill="#6B6B68">舌の位置が低い</text><path d="M757 433 C 719 483, 733 563, 807 581 C 855 593, 909 561, 917 513 C 927 451, 811 389, 757 433 Z" fill="#F5F2EE" stroke="#D9D6CE" stroke-width="3"/><path d="M771 503 C 815 507, 855 507, 893 507" fill="none" stroke="#2C2C2A" stroke-width="4" stroke-linecap="round"/><path d="M787 537 C 827 545, 857 545, 889 533" fill="none" stroke="#D97972" stroke-width="8" stroke-linecap="round"/><circle cx="797" cy="461" r="7" fill="#2C2C2A"/><path d="M1000 425 C 1090 425, 1090 425, 1180 425" fill="none" stroke="#E5A84C" stroke-width="4" stroke-linecap="round"/><path d="M1168 417 L1180 425 L1168 433" fill="none" stroke="#E5A84C" stroke-width="4" stroke-linecap="round" stroke-linejoin="round"/><rect x="1110" y="250" width="360" height="350" rx="10" fill="#FFFFFF" stroke="#D9D6CE"/><rect x="1110" y="250" width="360" height="8" rx="4" fill="#E5A84C"/><text x="1134" y="298" font-family="Noto Sans JP, Hiragino Sans, Yu Gothic, sans-serif" font-size="25" font-weight="700" fill="#2C2C2A">歯並び・顎の成長</text><text x="1134" y="338" font-family="Noto Sans JP, Hiragino Sans, Yu Gothic, sans-serif" font-size="19" font-weight="500" fill="#6B6B68">早期相談で確認</text><path d="M1252.5 407.5 C 1217.5 435, 1230 502.5, 1265 552.5 C 1280 575, 1285 515, 1290 507.5 C 1295 515, 1300 575, 1315 552.5 C 1350 502.5, 1362.5 435, 1327.5 407.5 C 1307.5 392.5, 1292.5 415, 1290 417.5 C 1287.5 415, 1272.5 392.5, 1252.5 407.5 Z" fill="#FFFFFF" stroke="#0A8A85" stroke-width="4"/><rect x="365" y="660" width="180" height="42" rx="21" fill="#0A8A85" opacity="0.1"/><text x="455" y="688" text-anchor="middle" font-family="Noto Sans JP, Hiragino Sans, Yu Gothic, sans-serif" font-size="20" font-weight="700" fill="#0A8A85">上あご</text><rect x="845" y="660" width="180" height="42" rx="21" fill="#D97972" opacity="0.1"/><text x="935" y="688" text-anchor="middle" font-family="Noto Sans JP, Hiragino Sans, Yu Gothic, sans-serif" font-size="20" font-weight="700" fill="#D97972">舌の位置</text><rect x="1265" y="660" width="180" height="42" rx="21" fill="#E5A84C" opacity="0.1"/><text x="1355" y="688" text-anchor="middle" font-family="Noto Sans JP, Hiragino Sans, Yu Gothic, sans-serif" font-size="20" font-weight="700" fill="#E5A84C">早期相談</text></svg>